<?xml version="1.0" encoding="UTF-8" standalone="no"?>
<svg
   width="598230.44"
   height="676380.38"
   viewBox="0 0 598230.44 676380.38"
   version="1.1"
   xml:space="preserve"
   style="clip-rule:evenodd;fill-rule:evenodd;stroke-linejoin:round;stroke-miterlimit:2"
   id="svg28"
   sodipodi:docname="CAB.svg"
   xmlns:inkscape="http://www.inkscape.org/namespaces/inkscape"
   xmlns:sodipodi="http://sodipodi.sourceforge.net/DTD/sodipodi-0.dtd"
   xmlns="http://www.w3.org/2000/svg"
   xmlns:svg="http://www.w3.org/2000/svg"><defs
   id="defs28" /><sodipodi:namedview
   id="namedview28"
   pagecolor="#ffffff"
   bordercolor="#000000"
   borderopacity="0.25"
   inkscape:showpageshadow="2"
   inkscape:pageopacity="0.0"
   inkscape:pagecheckerboard="0"
   inkscape:deskcolor="#d1d1d1"><inkscape:page
     x="0"
     y="0"
     width="598230.44"
     height="676380.38"
     id="page2"
     margin="0"
     bleed="0" /></sodipodi:namedview>
    <g
   transform="matrix(4.16667,0,0,4.16667,-284661.25,-58838.676)"
   id="g1">
        <path
   d="m 149.513,104.68 c 1.804,4.106 3.041,8.528 3.576,13.085 1.466,11.199 -1.342,22.698 -6.404,32.84 -5.011,9.924 -12.225,18.258 -20.377,24.722 -8.032,6.754 -17.941,10.483 -24.68,14.86 -7.111,4.598 -12.776,10.751 -15.045,18.286 -2.3,7.492 -1.294,15.88 1.805,22.965 -4.705,-6.135 -7.883,-14.679 -6.768,-23.988 1.051,-9.366 7.086,-18.173 14.728,-24.352 8.113,-6.472 16.136,-10.044 22.763,-16.346 6.783,-6.013 12.687,-13.299 16.858,-21.562 6.44,-12.083 7.816,-25.857 3.76,-37.342 z"
   style="fill:#0065a4;fill-rule:nonzero"
   id="path1" />
    </g>
    <g
   transform="matrix(4.16667,0,0,4.16667,-284661.25,-58851.58)"
   id="g2">
        <path
   d="m 112.786,105.625 c -1.772,20.104 2.159,45.586 17.588,69.122 8.266,12 17.857,20.073 22.746,30.373 4.815,9.41 7.408,21.782 -2.091,28.47 12.46,-3.878 14.53,-19.876 10.571,-31.269 -3.438,-12.37 -13.773,-22.948 -20.624,-33.117 -14.132,-21.528 -22.324,-44.328 -28.19,-63.579"
   style="fill:#ffd200;fill-rule:nonzero"
   id="path2" />
    </g>
    <g
   transform="matrix(4.16667,0,0,4.16667,-284661.25,-59297.997)"
   id="g3">
        <path
   d="m 99.154,246.196 c -4.092,-18.588 -3.499,-28.932 5.473,-42.69 l -9.99,-3.347 c -6.128,14.811 -4.182,29.366 4.517,46.037"
   style="fill:#0065a4;fill-rule:nonzero"
   id="path3" />
    </g>
    <g
   transform="matrix(-0.660515,-4.11398,-4.11398,0.660515,-283345.05,-57696.44)"
   id="g4">
        <path
   d="m 131.533,125.039 c -22.401,0.001 -40.561,18.161 -40.56,40.558 0,22.404 18.161,40.558 40.56,40.559 22.399,0.002 40.56,-18.161 40.559,-40.562 -0.001,-22.399 -18.157,-40.556 -40.559,-40.555"
   style="fill:#f5f6f6;fill-rule:nonzero"
   id="path4" />
    </g>
    <g
   transform="matrix(4.16667,0,0,4.16667,-284661.25,-58537.479)"
   id="g5">
        <path
   d="m 108.678,125.02 c -2.645,1.938 -0.553,5.342 1.428,7.658 6.269,3.903 13.614,6.12 21.329,6.133 -9.318,-1.564 -17.304,-6.524 -22.757,-13.791"
   style="fill:#b5111a;fill-rule:nonzero"
   id="path5" />
    </g>
    <g
   transform="matrix(4.16667,0,0,4.16667,-284661.25,-58550.079)"
   id="g6">
        <path
   d="m 157.493,132.441 c -18.173,6.756 -35.49,-7.078 -45.149,-5.659 -0.473,0.068 -0.886,0.158 -1.279,0.254 5.949,8.417 15.083,13.808 25.637,14.456 0.42,-0.053 0.842,-0.101 1.266,-0.168 7.46,-1.199 14.113,-4.366 19.525,-8.883"
   style="fill:#b5111a;fill-rule:nonzero"
   id="path6" />
    </g>
    <g
   transform="matrix(4.16667,0,0,4.16667,-284661.25,-58992.259)"
   id="g7">
        <path
   d="m 100.911,205.754 c 0.096,0.011 0.19,0.011 0.284,0.017 1.531,-16.009 11.376,-30.653 25.001,-38.564 -0.363,0.05 -0.726,0.087 -1.087,0.144 -15.265,2.449 -27.162,13.124 -31.902,26.77 -1.594,10.126 7.704,11.633 7.704,11.633"
   style="fill:#ee3123;fill-rule:nonzero"
   id="path7" />
    </g>
    <g
   transform="matrix(4.16667,0,0,4.16667,-284661.25,-58996.588)"
   id="g8">
        <path
   d="m 103.938,206.73 c 16.132,-2.05 22.228,-31.592 48.189,-33.235 -7.057,-4.162 -15.401,-6.208 -24.06,-5.455 -13.309,7.538 -22.907,22.369 -24.129,38.69"
   style="fill:#ee3123;fill-rule:nonzero"
   id="path8" />
    </g>
    <g
   transform="matrix(4.16667,0,0,4.16667,-284661.25,-58663.092)"
   id="g9">
        <path
   d="m 105.635,142.864 c 0.775,2.594 1.766,5.05 2.984,7.332 12.437,-1.335 37.982,21.477 59.967,-5.316 3.058,-6.851 4.244,-14.62 3.034,-22.575 -9.932,10.641 -28.201,18.702 -49.532,20.502 -5.676,0.479 -11.192,0.476 -16.453,0.057"
   style="fill:#b5111a;fill-rule:nonzero"
   id="path9" />
    </g>
    <g
   transform="matrix(4.16667,0,0,4.16667,-284661.25,-58899.58)"
   id="g10">
        <path
   d="m 170.181,172.957 c -1.386,-4.37 -3.466,-8.43 -6.044,-11.943 -31.676,-7.677 -42.066,27.532 -60.321,26.441 10e-4,0.286 -0.01,0.575 10e-4,0.864 0.09,3.092 0.504,6.056 1.169,8.88 4.593,0.199 9.364,0.083 14.248,-0.402 22.886,-2.271 42.087,-11.812 50.947,-23.84"
   style="fill:#ee3123;fill-rule:nonzero"
   id="path10" />
    </g>
    <g
   transform="matrix(4.16667,0,0,4.16667,-284661.25,-58630.367)"
   id="g11">
        <path
   d="m 93.157,133.643 c 2.695,7.924 7.71,14.613 14.136,19.407 -2.498,-2.576 -6.745,-7.926 -1.4,-10.043 -1.413,-2.56 -2.52,-5.344 -3.34,-8.293 -3.325,-0.374 -6.52,-0.934 -9.578,-1.64 0.062,0.188 0.118,0.38 0.182,0.569"
   style="fill:#b5111a;fill-rule:nonzero"
   id="path11" />
    </g>
    <g
   transform="matrix(4.16667,0,0,4.16667,-284661.25,-58799.292)"
   id="g12">
        <path
   d="m 100.985,164.818 c -0.013,-0.628 -0.006,-1.256 0.005,-1.883 -0.27,-0.072 -0.543,-0.144 -0.814,-0.23 -5.784,-1.816 -8.117,-5.159 -8.528,-8.985 -0.821,4.438 -0.912,9.086 -0.158,13.795 0.229,1.426 0.54,2.813 0.912,4.178 3.067,0.58 6.262,1.002 9.57,1.253 -0.569,-2.596 -0.921,-5.304 -0.987,-8.128"
   style="fill:#ee3123;fill-rule:nonzero"
   id="path12" />
    </g>
    <g
   transform="matrix(4.16667,0,0,4.16667,-284661.25,-58795.894)"
   id="g13">
        <path
   d="m 111.432,229.961 c 8.467,-8.521 11.658,-17.973 14.55,-27.354 2.986,-12.518 2.163,-25.321 -2.673,-36.776 -11.053,-22.101 -32.393,-40.23 -33.996,-69.942 -0.984,15.689 3.822,26.847 8.861,39.079 2.73,5.881 5.694,11.661 9.045,17.245 3.139,5.359 5.407,9.884 6.822,15.212 2.927,10.353 2.179,21.373 -1.623,31.741 -2.78,7.461 -7.756,15.395 -13.669,20.758 z"
   style="fill:#ffd200;fill-rule:nonzero"
   id="path13" />
    </g>
    <g
   transform="matrix(4.16667,0,0,4.16667,-284661.25,-58725.613)"
   id="g14">
        <path
   d="m 156.436,191.746 c -2.01,3.788 -5.941,7.679 -9.624,7.459 -3.231,-0.258 -5.143,-4.036 -5.385,-8.111 0.039,-7.452 4.864,-18.912 9.69,-28.063 10.527,-19.802 20.711,-41.494 15.794,-59.386 -2.911,17.172 -16.009,34.091 -26.773,54.617 -5.348,11.204 -9.626,21.099 -7.524,34.162 1.295,5.537 6.787,12.914 14.966,11.383 7.06,-2.194 8.379,-7.971 8.856,-12.061"
   style="fill:#0065a4;fill-rule:nonzero"
   id="path14" />
    </g>
    <g
   transform="matrix(4.16667,0,0,4.16667,-284661.25,-58879.413)"
   id="g15">
        <path
   d="m 184.532,175.028 c 0,-0.06 -0.014,-0.12 -0.022,-0.181 -0.011,-0.126 -0.021,-0.253 -0.052,-0.379 -0.016,-0.063 -0.046,-0.124 -0.066,-0.185 -0.041,-0.126 -0.081,-0.251 -0.144,-0.377 -0.03,-0.062 -0.077,-0.125 -0.112,-0.187 -0.072,-0.126 -0.139,-0.25 -0.232,-0.375 -0.047,-0.067 -0.113,-0.133 -0.167,-0.198 -0.099,-0.122 -0.196,-0.243 -0.313,-0.364 -0.07,-0.071 -0.16,-0.143 -0.237,-0.215 -0.124,-0.115 -0.241,-0.23 -0.382,-0.344 -0.103,-0.084 -0.228,-0.167 -0.34,-0.248 -0.138,-0.103 -0.269,-0.207 -0.422,-0.31 -0.161,-0.107 -0.348,-0.215 -0.527,-0.323 -0.126,-0.076 -0.24,-0.154 -0.377,-0.231 -0.327,-0.184 -0.675,-0.368 -1.051,-0.551 -0.343,-0.167 -0.707,-0.331 -1.083,-0.493 -0.106,-0.044 -0.213,-0.088 -0.319,-0.133 -0.16,-0.067 -0.331,-0.133 -0.496,-0.2 -0.125,-0.049 -0.246,-0.098 -0.373,-0.147 -0.149,-0.057 -0.293,-0.112 -0.442,-0.166 -0.286,-0.105 -0.577,-0.208 -0.875,-0.311 -0.133,-0.048 -0.266,-0.094 -0.404,-0.14 -0.265,-0.089 -0.543,-0.174 -0.818,-0.26 -0.116,-0.036 -0.228,-0.074 -0.346,-0.11 -0.088,-0.028 -0.172,-0.054 -0.264,-0.083 -0.022,-0.006 -0.046,-0.013 -0.068,-0.019 -0.469,-0.14 -0.95,-0.278 -1.446,-0.414 -0.116,-0.03 -0.232,-0.06 -0.348,-0.091 -0.398,-0.106 -0.803,-0.211 -1.218,-0.313 -0.18,-0.045 -0.363,-0.087 -0.547,-0.132 -0.018,-0.004 -0.033,-0.007 -0.05,-0.012 -0.324,-0.077 -0.652,-0.154 -0.984,-0.23 0.793,2.386 1.382,4.873 1.725,7.448 0.346,0.088 0.683,0.174 1.015,0.262 0.149,0.039 0.302,0.079 0.448,0.12 0.501,0.136 0.985,0.273 1.457,0.413 0.118,0.038 0.227,0.075 0.341,0.11 0.357,0.11 0.707,0.219 1.044,0.33 0.168,0.057 0.33,0.112 0.494,0.169 0.278,0.096 0.554,0.192 0.818,0.293 0.164,0.059 0.322,0.118 0.481,0.179 0.27,0.105 0.53,0.208 0.785,0.315 0.132,0.055 0.265,0.107 0.395,0.164 0.371,0.16 0.735,0.324 1.073,0.488 0.674,0.328 1.256,0.658 1.772,0.992 1.767,-1.142 2.697,-2.343 2.677,-3.561"
   style="fill:#b5111a;fill-rule:nonzero"
   id="path15" />
    </g>
    <g
   transform="matrix(4.16667,0,0,4.16667,-284661.25,-58882.884)"
   id="g16">
        <path
   d="m 91.582,167.667 c -0.297,0.06 -0.593,0.122 -0.884,0.183 -0.276,0.057 -0.547,0.117 -0.814,0.176 -0.341,0.075 -0.675,0.151 -1.004,0.228 -0.245,0.057 -0.487,0.114 -0.726,0.173 -0.381,0.092 -0.755,0.186 -1.12,0.281 -0.078,0.021 -0.159,0.042 -0.238,0.063 -0.107,0.027 -0.213,0.056 -0.317,0.085 -0.442,0.118 -0.88,0.238 -1.297,0.36 -0.022,0.006 -0.044,0.013 -0.064,0.019 -0.437,0.128 -0.857,0.258 -1.266,0.39 -0.106,0.034 -0.21,0.067 -0.315,0.101 -0.39,0.129 -0.766,0.257 -1.131,0.387 -0.092,0.033 -0.182,0.067 -0.274,0.1 -0.339,0.125 -0.667,0.25 -0.984,0.378 -0.035,0.013 -0.072,0.029 -0.107,0.043 -0.044,0.017 -0.089,0.036 -0.133,0.055 -0.346,0.141 -0.679,0.283 -0.994,0.426 -0.008,0.004 -0.017,0.009 -0.026,0.014 -0.052,0.023 -0.102,0.048 -0.153,0.073 -0.275,0.128 -0.54,0.257 -0.791,0.386 -0.062,0.032 -0.121,0.063 -0.182,0.096 -0.243,0.128 -0.47,0.257 -0.691,0.387 -0.053,0.031 -0.107,0.062 -0.158,0.092 -0.024,0.015 -0.046,0.03 -0.07,0.044 -0.242,0.15 -0.477,0.301 -0.691,0.453 -0.002,0 -0.004,0.003 -0.007,0.004 -0.019,0.016 -0.039,0.03 -0.061,0.046 -0.19,0.137 -0.365,0.277 -0.531,0.415 -0.009,0.009 -0.02,0.017 -0.029,0.025 -0.05,0.042 -0.096,0.085 -0.146,0.126 -0.16,0.143 -0.311,0.288 -0.447,0.432 -0.008,0.011 -0.019,0.021 -0.028,0.032 -0.015,0.018 -0.031,0.036 -0.048,0.053 -0.135,0.153 -0.258,0.306 -0.365,0.46 -0.009,0.013 -0.02,0.025 -0.029,0.038 0,0.003 -0.002,0.004 -0.002,0.005 -0.107,0.159 -0.195,0.32 -0.269,0.48 -0.02,0.042 -0.039,0.085 -0.057,0.126 -0.057,0.142 -0.105,0.284 -0.138,0.426 -0.009,0.026 -0.015,0.055 -0.022,0.081 -0.264,1.323 0.578,2.673 2.623,3.991 0.035,-0.022 0.065,-0.045 0.101,-0.067 0.063,-0.042 0.128,-0.08 0.196,-0.12 0.138,-0.086 0.28,-0.168 0.427,-0.254 0.065,-0.035 0.131,-0.074 0.201,-0.109 0.166,-0.094 0.342,-0.184 0.523,-0.276 0.048,-0.028 0.096,-0.053 0.149,-0.078 0.238,-0.119 0.485,-0.237 0.739,-0.352 0.048,-0.023 0.096,-0.043 0.146,-0.064 0.208,-0.094 0.421,-0.188 0.644,-0.28 0.1,-0.042 0.203,-0.081 0.303,-0.123 0.173,-0.07 0.348,-0.139 0.528,-0.21 0.136,-0.052 0.271,-0.102 0.411,-0.155 0.168,-0.061 0.337,-0.125 0.512,-0.186 0.136,-0.048 0.267,-0.096 0.404,-0.145 0.195,-0.065 0.396,-0.131 0.6,-0.198 0.14,-0.046 0.282,-0.094 0.426,-0.14 0.206,-0.066 0.416,-0.129 0.63,-0.195 0.158,-0.048 0.315,-0.096 0.479,-0.144 0.186,-0.057 0.377,-0.11 0.567,-0.164 0.208,-0.06 0.416,-0.119 0.63,-0.178 0.21,-0.057 0.422,-0.111 0.634,-0.17 0.223,-0.057 0.449,-0.116 0.678,-0.173 0.173,-0.044 0.346,-0.088 0.523,-0.129 0.341,-0.085 0.69,-0.166 1.039,-0.247 0.17,-0.04 0.339,-0.079 0.514,-0.118 0.413,-0.094 0.833,-0.184 1.26,-0.274 0.107,-0.022 0.21,-0.046 0.319,-0.069 0.09,-0.019 0.188,-0.037 0.278,-0.055 0.396,-2.545 1.026,-5.02 1.876,-7.399 -0.142,0.026 -0.281,0.053 -0.421,0.079 -0.451,0.085 -0.895,0.173 -1.33,0.26"
   style="fill:#b5111a;fill-rule:nonzero"
   id="path16" />
    </g>
    <g
   transform="matrix(4.16667,0,0,4.16667,-284661.25,-58771.276)"
   id="g17">
        <path
   d="m 133.371,170.822 h 0.017 c 1.267,-0.015 2.533,-0.039 3.804,-0.069 0.057,-0.003 0.114,-0.003 0.172,-0.005 0.049,0 0.101,-0.002 0.154,-0.005 1.431,-0.036 2.861,-0.085 4.291,-0.144 0.055,0 0.109,-0.002 0.164,-0.004 0.09,-0.005 0.18,-0.009 0.27,-0.013 1.056,-0.044 2.108,-0.096 3.159,-0.153 0.13,-0.005 0.263,-0.014 0.397,-0.022 1.096,-0.06 2.192,-0.125 3.286,-0.199 0.05,-0.005 0.105,-0.007 0.157,-0.011 0.031,-0.003 0.061,-0.005 0.092,-0.007 1.017,-0.07 2.03,-0.144 3.038,-0.225 0.103,-0.009 0.206,-0.018 0.308,-0.024 1.081,-0.088 2.155,-0.184 3.224,-0.284 0.86,-0.081 1.705,-0.167 2.543,-0.254 0.312,-0.035 0.616,-0.068 0.926,-0.103 0.513,-0.055 1.022,-0.114 1.526,-0.171 0.138,-0.017 0.279,-0.03 0.415,-0.048 0.23,-0.026 0.453,-0.057 0.68,-0.083 0.437,-0.055 0.873,-0.109 1.302,-0.164 0.329,-0.044 0.662,-0.085 0.99,-0.131 0.471,-0.063 0.933,-0.127 1.392,-0.193 0.286,-0.039 0.572,-0.08 0.855,-0.122 0.514,-0.075 1.016,-0.151 1.516,-0.23 0.223,-0.035 0.448,-0.07 0.669,-0.102 0.65,-0.106 1.291,-0.21 1.919,-0.318 0.056,-0.011 0.115,-0.019 0.172,-0.03 0.009,0 0.017,-0.003 0.027,-0.005 0.165,-0.028 0.327,-0.059 0.492,-0.087 0.434,-0.076 0.868,-0.155 1.294,-0.234 0.175,-0.033 0.348,-0.066 0.521,-0.099 0.4,-0.076 0.796,-0.153 1.186,-0.232 0.181,-0.037 0.365,-0.074 0.544,-0.109 0.394,-0.081 0.779,-0.162 1.163,-0.245 0.156,-0.033 0.314,-0.066 0.467,-0.101 0.008,-0.001 0.017,-0.001 0.028,-0.004 0.04,-0.008 0.076,-0.018 0.115,-0.029 0.602,-0.131 1.187,-0.264 1.761,-0.402 0.198,-0.046 0.392,-0.094 0.583,-0.142 0.446,-0.109 0.885,-0.219 1.312,-0.33 0.1,-0.025 0.205,-0.051 0.302,-0.074 0.094,-0.025 0.183,-0.051 0.277,-0.077 0.305,-0.081 0.597,-0.162 0.891,-0.243 0.238,-0.065 0.475,-0.133 0.708,-0.199 0.274,-0.081 0.543,-0.162 0.81,-0.241 0.146,-0.043 0.298,-0.087 0.441,-0.131 0.071,-0.024 0.139,-0.046 0.208,-0.068 0.226,-0.07 0.445,-0.142 0.666,-0.212 0.214,-0.07 0.432,-0.14 0.645,-0.212 0.208,-0.07 0.411,-0.14 0.617,-0.212 0.128,-0.046 0.267,-0.092 0.396,-0.136 0.092,-0.035 0.177,-0.068 0.271,-0.102 0.162,-0.06 0.326,-0.121 0.485,-0.18 0.226,-0.085 0.444,-0.169 0.659,-0.256 0.155,-0.059 0.31,-0.122 0.459,-0.181 0.081,-0.033 0.162,-0.064 0.243,-0.097 0.144,-0.061 0.28,-0.122 0.422,-0.184 0.12,-0.05 0.245,-0.103 0.361,-0.155 0.232,-0.103 0.45,-0.205 0.671,-0.306 0.101,-0.05 0.208,-0.096 0.309,-0.145 0.011,-0.006 0.024,-0.011 0.033,-0.014 0.286,-0.14 0.564,-0.281 0.829,-0.421 0.083,-0.043 0.159,-0.087 0.243,-0.133 0.153,-0.083 0.308,-0.166 0.457,-0.249 0.039,-0.022 0.071,-0.044 0.111,-0.066 0.099,-0.059 0.195,-0.116 0.293,-0.177 0.156,-0.095 0.306,-0.186 0.455,-0.28 0.097,-0.064 0.19,-0.125 0.285,-0.188 0.046,-0.031 0.096,-0.062 0.142,-0.092 0.096,-0.068 0.183,-0.133 0.277,-0.201 0.077,-0.055 0.155,-0.11 0.23,-0.167 0.197,-0.148 0.387,-0.297 0.565,-0.448 0.001,-0.002 0.001,-0.002 0.004,-0.004 0.039,-0.033 0.074,-0.068 0.112,-0.103 0.14,-0.121 0.27,-0.241 0.393,-0.363 0.071,-0.068 0.134,-0.138 0.199,-0.208 0.05,-0.051 0.106,-0.105 0.153,-0.158 0.029,-0.032 0.052,-0.065 0.082,-0.096 0.063,-0.074 0.124,-0.144 0.181,-0.218 0.076,-0.097 0.149,-0.193 0.217,-0.292 0.046,-0.063 0.091,-0.128 0.133,-0.192 0.013,-0.022 0.03,-0.042 0.042,-0.063 0.055,-0.083 0.096,-0.169 0.142,-0.254 0.03,-0.057 0.068,-0.114 0.094,-0.171 0.074,-0.157 0.142,-0.315 0.196,-0.472 0,-0.002 0,-0.007 0.003,-0.009 0.019,-0.059 0.031,-0.12 0.046,-0.179 0.032,-0.11 0.063,-0.219 0.082,-0.333 0.014,-0.065 0.016,-0.133 0.025,-0.199 0.009,-0.081 0.024,-0.164 0.028,-0.245 v -0.129 c 0,-2.653 0.003,-4.383 0.003,-7.036 0,0.137 -0.016,0.273 -0.034,0.41 -0.008,0.051 -0.008,0.101 -0.017,0.152 0,0.008 -0.005,0.016 -0.007,0.023 -0.011,0.064 -0.03,0.128 -0.045,0.191 -0.018,0.068 -0.031,0.136 -0.05,0.203 -0.012,0.031 -0.016,0.064 -0.026,0.095 -0.019,0.053 -0.045,0.105 -0.066,0.159 -0.027,0.07 -0.056,0.141 -0.086,0.211 -0.02,0.043 -0.032,0.085 -0.052,0.129 -0.022,0.043 -0.053,0.087 -0.075,0.131 -0.039,0.073 -0.085,0.147 -0.127,0.22 -0.044,0.071 -0.085,0.143 -0.133,0.215 -0.023,0.031 -0.044,0.064 -0.066,0.096 -0.074,0.103 -0.151,0.207 -0.234,0.313 -0.028,0.037 -0.061,0.074 -0.092,0.111 -0.063,0.077 -0.133,0.154 -0.203,0.229 -0.048,0.053 -0.094,0.106 -0.144,0.158 -0.053,0.053 -0.103,0.108 -0.158,0.162 -0.039,0.039 -0.085,0.079 -0.127,0.117 -0.075,0.071 -0.148,0.141 -0.227,0.213 -0.02,0.017 -0.039,0.036 -0.059,0.053 -0.035,0.031 -0.066,0.059 -0.101,0.092 -0.137,0.118 -0.29,0.236 -0.446,0.355 -0.057,0.044 -0.11,0.088 -0.168,0.131 -0.051,0.038 -0.106,0.074 -0.156,0.111 -0.153,0.109 -0.306,0.219 -0.468,0.328 -0.061,0.042 -0.124,0.084 -0.19,0.125 -0.092,0.06 -0.193,0.12 -0.289,0.181 -0.09,0.056 -0.177,0.113 -0.273,0.169 -0.079,0.048 -0.16,0.096 -0.243,0.144 -0.068,0.04 -0.142,0.08 -0.215,0.119 -0.113,0.065 -0.225,0.129 -0.343,0.193 -0.032,0.017 -0.063,0.036 -0.097,0.054 -0.056,0.028 -0.104,0.057 -0.159,0.087 -0.221,0.117 -0.457,0.233 -0.693,0.349 -0.064,0.032 -0.123,0.064 -0.188,0.095 -0.009,0.004 -0.018,0.009 -0.026,0.013 -0.047,0.022 -0.097,0.044 -0.141,0.065 -0.266,0.125 -0.537,0.252 -0.822,0.377 -0.077,0.034 -0.155,0.069 -0.236,0.103 -0.11,0.048 -0.226,0.095 -0.338,0.143 -0.152,0.065 -0.303,0.129 -0.461,0.194 -0.129,0.052 -0.26,0.105 -0.391,0.155 -0.077,0.03 -0.158,0.06 -0.234,0.091 -0.136,0.052 -0.267,0.105 -0.405,0.156 -0.033,0.013 -0.064,0.025 -0.096,0.037 -0.149,0.055 -0.3,0.112 -0.451,0.169 -0.218,0.079 -0.439,0.157 -0.664,0.234 -0.012,0.004 -0.023,0.008 -0.034,0.011 -0.157,0.055 -0.312,0.109 -0.472,0.164 -0.037,0.012 -0.072,0.025 -0.11,0.037 -0.218,0.074 -0.445,0.147 -0.673,0.223 -0.19,0.059 -0.382,0.123 -0.58,0.184 -0.199,0.061 -0.399,0.122 -0.603,0.183 -0.028,0.009 -0.057,0.018 -0.086,0.027 -0.291,0.087 -0.581,0.175 -0.881,0.26 -0.048,0.014 -0.099,0.029 -0.148,0.042 -0.289,0.083 -0.583,0.165 -0.88,0.247 -0.171,0.046 -0.337,0.093 -0.51,0.14 -0.205,0.054 -0.415,0.107 -0.625,0.162 -0.003,0.001 -0.007,0.002 -0.009,0.002 -0.343,0.088 -0.692,0.176 -1.045,0.263 -0.068,0.017 -0.134,0.035 -0.204,0.052 -0.205,0.05 -0.407,0.101 -0.615,0.148 -0.076,0.019 -0.157,0.037 -0.233,0.055 -0.346,0.081 -0.695,0.161 -1.048,0.24 -0.121,0.028 -0.239,0.057 -0.362,0.084 -0.093,0.022 -0.183,0.041 -0.279,0.063 -0.106,0.022 -0.215,0.044 -0.32,0.068 -0.177,0.038 -0.359,0.076 -0.538,0.114 -0.16,0.034 -0.319,0.068 -0.481,0.1 -0.103,0.022 -0.204,0.044 -0.308,0.066 -0.143,0.029 -0.291,0.057 -0.435,0.088 -0.434,0.085 -0.871,0.172 -1.316,0.255 -0.019,0.004 -0.039,0.008 -0.058,0.011 -0.077,0.016 -0.153,0.03 -0.23,0.044 -0.041,0.008 -0.083,0.017 -0.127,0.024 -0.477,0.088 -0.958,0.175 -1.448,0.263 -0.116,0.019 -0.232,0.041 -0.352,0.063 -0.096,0.017 -0.199,0.033 -0.298,0.05 -0.313,0.053 -0.636,0.104 -0.955,0.157 -0.287,0.048 -0.572,0.097 -0.862,0.143 -0.257,0.041 -0.518,0.081 -0.777,0.122 -0.236,0.037 -0.474,0.073 -0.713,0.109 -0.23,0.035 -0.457,0.07 -0.689,0.104 -0.317,0.043 -0.634,0.09 -0.954,0.136 -0.06,0.008 -0.126,0.017 -0.19,0.026 -0.352,0.049 -0.708,0.098 -1.067,0.146 -0.011,0.001 -0.022,0.004 -0.033,0.004 -0.352,0.046 -0.707,0.095 -1.066,0.141 -0.163,0.02 -0.331,0.041 -0.498,0.063 -0.426,0.054 -0.851,0.106 -1.284,0.159 -0.196,0.023 -0.391,0.047 -0.593,0.071 -0.374,0.042 -0.754,0.085 -1.137,0.128 -0.374,0.041 -0.746,0.084 -1.127,0.124 -0.052,0.006 -0.102,0.011 -0.155,0.017 -0.842,0.089 -1.695,0.175 -2.559,0.258 -1.113,0.105 -2.235,0.202 -3.36,0.293 -0.079,0.007 -0.157,0.013 -0.236,0.02 -0.659,0.052 -1.321,0.099 -1.984,0.147 -0.286,0.021 -0.571,0.044 -0.859,0.064 -0.042,0.003 -0.084,0.006 -0.125,0.01 -0.09,0.004 -0.175,0.011 -0.265,0.017 -0.302,0.02 -0.606,0.036 -0.91,0.055 -0.783,0.05 -1.566,0.099 -2.352,0.143 -0.019,0.001 -0.041,0.002 -0.06,0.004 -0.099,0.006 -0.2,0.012 -0.3,0.017 -0.26,0.014 -0.52,0.024 -0.781,0.037 -0.77,0.039 -1.538,0.077 -2.308,0.111 -0.072,0.002 -0.143,0.006 -0.216,0.009 -0.094,0.007 -0.188,0.009 -0.283,0.014 -0.19,0.007 -0.382,0.01 -0.572,0.018 -1.142,0.045 -2.284,0.083 -3.426,0.114 -0.118,0.003 -0.236,0.009 -0.354,0.012 -0.108,0.004 -0.215,0.006 -0.319,0.009 -0.049,0.001 -0.097,0.001 -0.142,0.002 -2.411,0.059 -4.819,0.089 -7.217,0.089 h -0.446 c -0.332,-0.001 -0.663,-0.005 -0.993,-0.006 -0.654,-0.004 -1.308,-0.007 -1.958,-0.014 -0.089,-0.001 -0.179,-0.001 -0.268,-0.001 -0.11,-0.002 -0.22,-0.005 -0.329,-0.005 -0.312,-0.003 -0.626,-0.012 -0.938,-0.018 -0.595,-0.01 -1.192,-0.019 -1.785,-0.033 -0.197,-0.003 -0.398,-0.006 -0.595,-0.01 -0.089,-0.004 -0.177,-0.004 -0.267,-0.007 -0.277,-0.007 -0.556,-0.018 -0.835,-0.027 -0.722,-0.02 -1.444,-0.044 -2.162,-0.069 -0.181,-0.007 -0.363,-0.011 -0.542,-0.018 h -0.037 c -0.184,-0.006 -0.363,-0.017 -0.547,-0.023 -0.859,-0.034 -1.713,-0.074 -2.563,-0.114 -0.129,-0.007 -0.259,-0.011 -0.385,-0.018 -0.095,-0.002 -0.189,-0.009 -0.282,-0.013 -0.068,-0.003 -0.136,-0.009 -0.206,-0.012 -0.862,-0.044 -1.719,-0.094 -2.573,-0.146 -0.199,-0.013 -0.402,-0.021 -0.601,-0.034 -0.055,-0.004 -0.113,-0.008 -0.17,-0.013 -1.154,-0.072 -2.297,-0.153 -3.43,-0.24 -0.136,-0.01 -0.269,-0.021 -0.409,-0.032 -0.265,-0.02 -0.524,-0.045 -0.788,-0.066 -0.691,-0.057 -1.38,-0.114 -2.063,-0.175 -0.113,-0.011 -0.232,-0.019 -0.345,-0.03 -0.085,-0.008 -0.171,-0.015 -0.258,-0.026 -0.105,-0.01 -0.208,-0.022 -0.313,-0.032 -0.938,-0.087 -1.868,-0.18 -2.789,-0.279 -0.129,-0.014 -0.262,-0.025 -0.394,-0.039 -0.111,-0.012 -0.218,-0.027 -0.33,-0.039 -0.982,-0.108 -1.951,-0.22 -2.909,-0.339 -0.066,-0.007 -0.133,-0.014 -0.199,-0.023 -0.173,-0.019 -0.348,-0.041 -0.521,-0.063 -0.013,-0.002 -0.028,-0.003 -0.041,-0.005 -0.123,-0.016 -0.243,-0.032 -0.366,-0.048 -0.38,-0.05 -0.759,-0.098 -1.133,-0.148 -0.111,-0.013 -0.218,-0.031 -0.328,-0.046 -0.19,-0.026 -0.376,-0.053 -0.566,-0.08 -0.25,-0.035 -0.497,-0.069 -0.744,-0.105 -0.013,-0.002 -0.026,-0.003 -0.039,-0.005 -0.173,-0.024 -0.346,-0.049 -0.519,-0.075 -0.463,-0.067 -0.923,-0.138 -1.377,-0.209 -0.088,-0.015 -0.178,-0.028 -0.267,-0.042 -0.12,-0.018 -0.239,-0.037 -0.359,-0.057 -0.47,-0.074 -0.938,-0.152 -1.404,-0.23 -0.153,-0.024 -0.302,-0.05 -0.453,-0.076 -0.057,-0.01 -0.114,-0.021 -0.171,-0.031 -0.306,-0.053 -0.608,-0.107 -0.912,-0.162 -0.247,-0.044 -0.499,-0.085 -0.743,-0.131 -0.103,-0.02 -0.202,-0.037 -0.302,-0.057 -0.138,-0.026 -0.272,-0.052 -0.41,-0.079 -0.259,-0.049 -0.518,-0.098 -0.776,-0.148 -0.079,-0.016 -0.162,-0.031 -0.24,-0.046 -0.198,-0.04 -0.394,-0.077 -0.587,-0.116 -0.216,-0.044 -0.426,-0.091 -0.641,-0.136 -0.332,-0.069 -0.661,-0.138 -0.986,-0.207 -0.149,-0.033 -0.306,-0.064 -0.455,-0.097 -0.088,-0.022 -0.18,-0.039 -0.269,-0.059 -0.212,-0.048 -0.414,-0.098 -0.625,-0.147 -0.333,-0.076 -0.661,-0.153 -0.988,-0.232 -0.211,-0.048 -0.43,-0.098 -0.638,-0.148 -0.004,-0.002 -0.011,-0.005 -0.018,-0.007 -0.185,-0.044 -0.363,-0.094 -0.546,-0.14 -0.289,-0.074 -0.58,-0.147 -0.865,-0.223 -0.041,-0.011 -0.085,-0.022 -0.129,-0.032 -0.102,-0.027 -0.205,-0.053 -0.306,-0.081 -0.301,-0.081 -0.595,-0.164 -0.89,-0.248 -0.158,-0.045 -0.322,-0.088 -0.477,-0.133 -0.026,-0.007 -0.054,-0.014 -0.08,-0.022 -0.079,-0.024 -0.158,-0.046 -0.237,-0.07 -0.45,-0.133 -0.894,-0.267 -1.325,-0.403 -0.049,-0.015 -0.094,-0.028 -0.142,-0.041 -0.456,-0.146 -0.897,-0.293 -1.335,-0.444 -0.083,-0.029 -0.166,-0.057 -0.249,-0.086 -0.053,-0.018 -0.101,-0.037 -0.153,-0.055 -0.156,-0.055 -0.304,-0.11 -0.457,-0.165 -0.219,-0.079 -0.442,-0.156 -0.654,-0.237 -0.038,-0.015 -0.077,-0.03 -0.112,-0.043 -0.127,-0.049 -0.245,-0.099 -0.368,-0.147 -0.172,-0.067 -0.343,-0.135 -0.509,-0.203 -0.084,-0.033 -0.169,-0.066 -0.249,-0.098 -0.062,-0.027 -0.123,-0.051 -0.185,-0.077 -0.196,-0.081 -0.38,-0.166 -0.568,-0.25 -0.146,-0.063 -0.295,-0.126 -0.435,-0.19 -0.029,-0.013 -0.057,-0.025 -0.086,-0.037 -0.07,-0.033 -0.137,-0.063 -0.208,-0.096 -0.355,-0.167 -0.702,-0.335 -1.032,-0.506 -0.454,-0.234 -0.879,-0.47 -1.275,-0.706 -0.14,-0.084 -0.258,-0.17 -0.389,-0.254 -0.243,-0.153 -0.492,-0.306 -0.711,-0.46 -0.129,-0.093 -0.236,-0.185 -0.359,-0.278 -0.192,-0.146 -0.393,-0.293 -0.566,-0.441 -0.112,-0.096 -0.199,-0.192 -0.302,-0.288 -0.156,-0.145 -0.317,-0.289 -0.451,-0.434 -0.092,-0.098 -0.159,-0.197 -0.24,-0.294 -0.118,-0.143 -0.246,-0.286 -0.344,-0.43 -0.07,-0.1 -0.118,-0.202 -0.177,-0.303 -0.083,-0.141 -0.175,-0.281 -0.238,-0.42 -0.049,-0.106 -0.077,-0.213 -0.114,-0.319 -0.048,-0.134 -0.105,-0.269 -0.138,-0.403 -0.026,-0.112 -0.028,-0.225 -0.043,-0.336 -0.018,-0.128 -0.042,-0.257 -0.044,-0.384 0,-0.012 -0.005,-0.025 -0.005,-0.037 0,2.653 -0.002,4.383 -0.002,7.039 0,1.931 1.73,3.896 5.394,5.785 0.333,0.173 0.681,0.342 1.036,0.506 0.069,0.032 0.134,0.065 0.202,0.096 0.352,0.161 0.715,0.319 1.092,0.478 0.061,0.024 0.124,0.051 0.188,0.077 0.358,0.149 0.726,0.295 1.107,0.44 0.045,0.018 0.089,0.035 0.135,0.052 0.4,0.151 0.816,0.302 1.238,0.451 0.096,0.033 0.192,0.066 0.289,0.099 0.422,0.144 0.855,0.288 1.297,0.43 0.068,0.02 0.137,0.042 0.208,0.064 0.404,0.126 0.82,0.251 1.244,0.376 0.094,0.028 0.19,0.057 0.287,0.085 0.461,0.134 0.934,0.265 1.419,0.394 0.108,0.03 0.219,0.06 0.329,0.087 1.216,0.324 2.486,0.635 3.812,0.93 0.068,0.015 0.138,0.029 0.206,0.044 0.717,0.16 1.452,0.315 2.198,0.464 0.035,0.008 0.068,0.017 0.103,0.021 0.085,0.018 0.17,0.035 0.255,0.051 0.565,0.113 1.136,0.223 1.715,0.33 0.044,0.009 0.086,0.017 0.129,0.024 0.619,0.114 1.252,0.225 1.888,0.335 0.072,0.011 0.14,0.024 0.21,0.037 0.07,0.011 0.143,0.022 0.21,0.035 0.547,0.092 1.098,0.182 1.658,0.271 0.096,0.016 0.199,0.031 0.298,0.046 0.483,0.075 0.975,0.149 1.469,0.221 0.093,0.013 0.18,0.029 0.271,0.042 0.084,0.011 0.167,0.022 0.248,0.035 0.448,0.063 0.896,0.126 1.349,0.187 0.11,0.016 0.215,0.033 0.322,0.049 0.512,0.068 1.03,0.136 1.551,0.201 0.096,0.013 0.188,0.024 0.284,0.037 0.072,0.009 0.151,0.016 0.223,0.026 2.242,0.278 4.554,0.53 6.921,0.751 0.046,0.002 0.087,0.009 0.129,0.011 0.055,0.006 0.111,0.008 0.166,0.015 1.057,0.096 2.122,0.186 3.2,0.271 0.079,0.007 0.158,0.015 0.241,0.022 0.048,0.004 0.096,0.007 0.144,0.009 1.127,0.087 2.262,0.166 3.403,0.24 0.027,0.002 0.053,0.005 0.077,0.007 0.044,0.002 0.086,0.002 0.127,0.007 1.116,0.069 2.24,0.135 3.373,0.192 0.05,0.002 0.098,0.005 0.151,0.009 0.043,0.002 0.092,0.004 0.136,0.004 1.157,0.059 2.323,0.109 3.49,0.153 0.012,0 0.018,0.002 0.027,0.002 h 0.013 c 1.172,0.047 2.354,0.081 3.539,0.112 0.031,0 0.066,0.002 0.099,0.005 0.054,0 0.109,0.001 0.166,0.001 1.102,0.027 2.209,0.049 3.32,0.062 0.055,0.002 0.105,0.004 0.16,0.004 0.057,0.002 0.114,0.002 0.168,0.002 1.07,0.011 2.146,0.02 3.22,0.02 0.083,0 0.166,0.002 0.251,0.002 h 0.162 c 1.188,0 2.376,-0.006 3.566,-0.022 z"
   style="fill:#ffffff;fill-rule:nonzero"
   id="path17" />
    </g>
    <g
   transform="matrix(4.16667,0,0,4.16667,-284661.25,-58852.797)"
   id="g18">
        <path
   d="m 63.308,169.084 c 0.016,0.111 0.018,0.224 0.044,0.336 0.033,0.134 0.09,0.269 0.138,0.403 0.037,0.106 0.065,0.213 0.114,0.319 0.063,0.14 0.155,0.279 0.238,0.419 0.059,0.102 0.107,0.203 0.177,0.304 0.099,0.143 0.226,0.287 0.343,0.43 0.082,0.097 0.149,0.196 0.241,0.294 0.134,0.145 0.295,0.289 0.451,0.433 0.102,0.096 0.19,0.193 0.302,0.289 0.172,0.148 0.374,0.294 0.566,0.441 0.123,0.093 0.23,0.185 0.359,0.278 0.219,0.154 0.468,0.307 0.711,0.46 0.131,0.085 0.249,0.17 0.389,0.254 0.396,0.236 0.82,0.472 1.275,0.706 0.421,0.217 0.864,0.429 1.326,0.639 0.14,0.063 0.289,0.127 0.435,0.19 0.326,0.144 0.657,0.285 1.002,0.425 0.166,0.068 0.337,0.136 0.51,0.203 0.367,0.145 0.745,0.286 1.133,0.427 0.153,0.055 0.301,0.11 0.457,0.165 1.102,0.388 2.277,0.762 3.522,1.121 0.155,0.045 0.319,0.089 0.476,0.133 0.436,0.123 0.877,0.243 1.326,0.361 0.284,0.076 0.575,0.149 0.863,0.223 0.397,0.1 0.797,0.199 1.204,0.296 0.326,0.078 0.654,0.155 0.986,0.231 0.447,0.102 0.895,0.204 1.35,0.302 0.326,0.071 0.654,0.139 0.986,0.208 0.484,0.101 0.971,0.2 1.468,0.297 0.258,0.051 0.516,0.1 0.777,0.149 0.479,0.091 0.964,0.179 1.454,0.267 0.304,0.055 0.606,0.109 0.912,0.162 0.667,0.116 1.343,0.229 2.028,0.337 0.121,0.019 0.238,0.039 0.359,0.058 0.724,0.114 1.461,0.223 2.203,0.33 0.246,0.036 0.494,0.07 0.743,0.105 0.669,0.094 1.343,0.185 2.027,0.274 0.123,0.016 0.243,0.032 0.366,0.048 0.249,0.031 0.507,0.061 0.761,0.091 0.958,0.119 1.927,0.231 2.909,0.34 0.241,0.026 0.483,0.051 0.724,0.077 0.921,0.099 1.851,0.191 2.789,0.279 0.306,0.029 0.61,0.059 0.916,0.087 0.683,0.062 1.372,0.119 2.064,0.175 0.4,0.033 0.793,0.068 1.196,0.099 1.133,0.087 2.277,0.167 3.43,0.241 0.255,0.016 0.516,0.03 0.772,0.045 0.853,0.053 1.71,0.102 2.572,0.147 0.288,0.016 0.582,0.029 0.872,0.043 0.852,0.04 1.704,0.08 2.564,0.114 0.374,0.014 0.75,0.028 1.127,0.041 0.717,0.026 1.439,0.049 2.161,0.069 0.564,0.016 1.13,0.032 1.697,0.045 0.593,0.013 1.19,0.023 1.785,0.033 0.512,0.009 1.021,0.017 1.536,0.024 0.649,0.006 1.303,0.01 1.957,0.013 0.479,0.002 0.958,0.006 1.439,0.006 2.398,0 4.806,-0.03 7.216,-0.089 0.271,-0.007 0.545,-0.016 0.816,-0.023 1.142,-0.031 2.284,-0.069 3.426,-0.114 0.356,-0.013 0.715,-0.026 1.072,-0.042 0.769,-0.034 1.536,-0.071 2.307,-0.11 0.381,-0.02 0.761,-0.037 1.142,-0.058 0.785,-0.044 1.568,-0.093 2.351,-0.143 0.433,-0.027 0.869,-0.052 1.3,-0.081 0.288,-0.021 0.573,-0.044 0.859,-0.065 0.742,-0.054 1.481,-0.107 2.22,-0.167 1.124,-0.091 2.246,-0.188 3.36,-0.293 0.921,-0.087 1.822,-0.179 2.714,-0.275 0.381,-0.04 0.752,-0.083 1.126,-0.124 0.583,-0.066 1.162,-0.132 1.731,-0.199 0.433,-0.053 0.858,-0.105 1.284,-0.159 0.538,-0.069 1.072,-0.137 1.597,-0.208 0.359,-0.047 0.715,-0.097 1.067,-0.146 0.619,-0.088 1.232,-0.175 1.833,-0.266 0.238,-0.036 0.477,-0.072 0.713,-0.108 0.556,-0.087 1.098,-0.176 1.638,-0.266 0.32,-0.052 0.643,-0.104 0.956,-0.158 0.756,-0.13 1.499,-0.262 2.225,-0.399 0.077,-0.014 0.153,-0.028 0.23,-0.044 0.721,-0.136 1.426,-0.276 2.117,-0.42 0.162,-0.032 0.321,-0.066 0.481,-0.1 0.51,-0.107 1.006,-0.218 1.498,-0.328 0.355,-0.08 0.702,-0.16 1.048,-0.241 0.357,-0.084 0.706,-0.169 1.052,-0.255 0.355,-0.087 0.702,-0.174 1.046,-0.263 0.387,-0.101 0.768,-0.201 1.144,-0.305 0.297,-0.081 0.59,-0.164 0.879,-0.245 0.378,-0.11 0.753,-0.219 1.116,-0.33 0.203,-0.061 0.404,-0.122 0.604,-0.184 0.465,-0.146 0.921,-0.294 1.362,-0.443 0.16,-0.055 0.315,-0.108 0.472,-0.163 0.427,-0.149 0.843,-0.3 1.245,-0.452 0.138,-0.051 0.269,-0.104 0.405,-0.156 0.372,-0.146 0.735,-0.293 1.087,-0.44 0.112,-0.049 0.227,-0.095 0.337,-0.143 0.424,-0.184 0.835,-0.37 1.225,-0.558 0.065,-0.031 0.125,-0.063 0.188,-0.095 0.33,-0.162 0.648,-0.325 0.949,-0.49 0.118,-0.064 0.23,-0.128 0.343,-0.193 0.254,-0.143 0.5,-0.287 0.731,-0.433 0.096,-0.06 0.197,-0.12 0.289,-0.18 0.286,-0.186 0.56,-0.374 0.813,-0.563 0.06,-0.044 0.112,-0.088 0.169,-0.132 0.214,-0.166 0.418,-0.333 0.606,-0.501 0.079,-0.071 0.153,-0.141 0.227,-0.212 0.153,-0.145 0.295,-0.291 0.429,-0.437 0.07,-0.076 0.14,-0.152 0.204,-0.229 0.143,-0.172 0.275,-0.346 0.391,-0.521 0.048,-0.07 0.09,-0.143 0.133,-0.214 0.095,-0.16 0.182,-0.319 0.255,-0.48 0.029,-0.07 0.058,-0.141 0.085,-0.211 0.058,-0.152 0.104,-0.305 0.142,-0.457 0.015,-0.064 0.034,-0.127 0.046,-0.191 0.387,-2.119 -1.302,-4.291 -5.335,-6.371 -4.979,-2.57 -12.875,-4.666 -22.462,-6.178 0.628,1.359 1.183,2.76 1.662,4.199 0.333,0.076 0.661,0.153 0.985,0.23 0.198,0.048 0.402,0.096 0.597,0.144 0.415,0.102 0.82,0.207 1.218,0.313 0.116,0.031 0.234,0.061 0.348,0.091 0.497,0.136 0.978,0.274 1.445,0.414 0.232,0.07 0.453,0.141 0.679,0.212 0.276,0.086 0.553,0.171 0.818,0.26 0.743,0.247 1.435,0.503 2.093,0.764 0.166,0.067 0.337,0.133 0.497,0.2 0.107,0.044 0.216,0.088 0.318,0.133 0.378,0.162 0.74,0.326 1.084,0.493 0.376,0.183 0.723,0.367 1.051,0.551 0.136,0.077 0.25,0.155 0.377,0.231 0.18,0.107 0.366,0.216 0.527,0.323 0.153,0.103 0.284,0.207 0.423,0.31 0.111,0.081 0.236,0.164 0.338,0.248 0.142,0.114 0.259,0.229 0.383,0.344 0.076,0.072 0.166,0.144 0.237,0.215 0.118,0.121 0.214,0.242 0.312,0.364 0.055,0.065 0.12,0.132 0.169,0.198 0.092,0.125 0.159,0.249 0.232,0.375 0.034,0.062 0.08,0.125 0.111,0.187 0.063,0.126 0.103,0.251 0.144,0.377 0.02,0.061 0.051,0.122 0.066,0.185 0.031,0.126 0.042,0.253 0.053,0.379 0.006,0.061 0.022,0.121 0.022,0.181 0.019,1.218 -0.911,2.419 -2.678,3.561 -4.7,3.034 -15.4,5.644 -30.54,6.998 -27.809,2.487 -60.02,-0.212 -71.941,-6.024 -0.676,-0.329 -1.26,-0.662 -1.778,-0.996 -2.045,-1.318 -2.887,-2.668 -2.622,-3.991 0.006,-0.028 0.014,-0.053 0.021,-0.081 0.033,-0.142 0.081,-0.284 0.138,-0.425 0.018,-0.042 0.035,-0.084 0.057,-0.127 0.074,-0.16 0.161,-0.321 0.269,-0.48 0.009,-0.015 0.022,-0.029 0.031,-0.043 0.107,-0.154 0.229,-0.307 0.365,-0.459 0.026,-0.029 0.05,-0.057 0.077,-0.085 0.135,-0.145 0.286,-0.289 0.446,-0.432 0.057,-0.051 0.116,-0.101 0.174,-0.151 0.167,-0.139 0.342,-0.278 0.532,-0.416 0.024,-0.016 0.046,-0.034 0.068,-0.05 0.214,-0.152 0.449,-0.303 0.691,-0.453 0.075,-0.046 0.151,-0.091 0.228,-0.136 0.221,-0.13 0.448,-0.259 0.691,-0.387 0.059,-0.033 0.12,-0.064 0.182,-0.096 0.251,-0.129 0.516,-0.258 0.791,-0.386 0.061,-0.029 0.116,-0.057 0.179,-0.086 0.316,-0.144 0.648,-0.286 0.994,-0.427 0.078,-0.033 0.159,-0.066 0.24,-0.099 0.317,-0.126 0.646,-0.252 0.984,-0.377 0.092,-0.033 0.182,-0.066 0.274,-0.1 0.365,-0.129 0.741,-0.259 1.131,-0.387 0.103,-0.033 0.21,-0.067 0.315,-0.101 0.409,-0.132 0.829,-0.262 1.266,-0.39 0.02,-0.006 0.042,-0.013 0.063,-0.019 0.418,-0.122 0.856,-0.242 1.298,-0.36 0.183,-0.05 0.369,-0.099 0.555,-0.148 0.365,-0.095 0.739,-0.189 1.121,-0.281 0.238,-0.058 0.48,-0.115 0.725,-0.172 0.329,-0.077 0.663,-0.154 1.004,-0.229 0.267,-0.059 0.538,-0.118 0.814,-0.176 0.291,-0.062 0.586,-0.123 0.884,-0.183 0.435,-0.088 0.879,-0.174 1.33,-0.259 0.139,-0.028 0.279,-0.054 0.422,-0.08 0.485,-1.357 1.05,-2.68 1.675,-3.97 -20.071,2.707 -31.799,7.527 -31.744,12.563 0.002,0.128 0.026,0.256 0.043,0.384"
   style="fill:#ee3123;fill-rule:nonzero"
   id="path18" />
    </g>
    
    
    <g
   id="g29"
   transform="translate(-285272.89,-58924.52)"><g
     transform="matrix(4.16667,0,0,4.16667,0,513.166)"
     id="g19">
        <path
   d="m 94.734,93.697 c -1.842,0.636 -5.453,1.276 -9.916,1.276 -13.034,0 -21.816,-7.083 -21.816,-23.304 v -7.297 c 0,-16.22 8.782,-23.304 21.816,-23.304 4.463,0 8.074,0.638 9.916,1.275 1.132,0.354 1.559,0.566 1.559,1.56 v 9.066 c 0,0.922 -0.427,1.344 -1.275,1.344 h -0.212 c -2.905,-0.281 -5.879,-0.636 -9.918,-0.636 -3.825,0 -7.294,1.7 -7.294,10.695 v 7.297 c 0,8.924 3.399,10.695 7.294,10.695 4.039,0 7.013,-0.354 9.918,-0.638 h 0.212 c 0.848,0 1.275,0.427 1.275,1.347 v 9.066 c 0,0.92 -0.427,1.204 -1.559,1.558"
   style="fill:#ee3123;fill-rule:nonzero"
   id="path19" />
    </g><g
     transform="matrix(4.16667,0,0,4.16667,0,510.502)"
     id="g20">
        <path
   d="m 124.269,54.457 c -0.142,-0.636 -0.142,-0.991 -0.778,-0.991 -0.639,0 -0.639,0.355 -0.782,0.991 l -3.468,17.993 h 8.5 z m 21.25,40.515 h -12.326 c -0.708,0 -1.275,-0.636 -1.417,-1.344 l -1.981,-9.845 h -12.608 l -1.984,9.845 c -0.143,0.708 -0.709,1.344 -1.418,1.344 h -12.253 c -0.708,0 -1.203,-0.493 -1.203,-1.132 0,-0.142 0.07,-0.212 0.07,-0.354 l 9.491,-43.349 c 1.559,-7.013 6.87,-8.43 13.601,-8.43 6.728,0 12.041,1.417 13.598,8.43 l 9.491,43.349 c 0,0.142 0.072,0.284 0.072,0.354 0,0.71 -0.424,1.132 -1.133,1.132"
   style="fill:#ee3123;fill-rule:nonzero"
   id="path20" />
    </g><g
     transform="matrix(4.16667,0,0,4.16667,0,512.874)"
     id="g21">
        <path
   d="m 179.869,77.618 c 0,-2.834 -1.558,-5.101 -6.234,-5.101 h -6.87 v 10.839 h 5.809 c 5.523,0 7.295,-2.054 7.295,-5.102 z M 179.584,57.29 c 0,-2.764 -1.699,-4.534 -7.224,-4.534 -0.567,0 -5.099,0.071 -5.595,0.071 v 10.058 h 6.87 c 4.676,0 5.949,-1.984 5.949,-4.463 z m -8.924,37.752 c -3.611,0 -10.269,-0.283 -13.598,-0.85 -3.329,-0.567 -4.463,-1.557 -4.463,-5.384 V 47.23 c 0,-3.824 1.134,-4.816 4.39,-5.312 2.975,-0.495 9.918,-0.85 13.459,-0.85 13.955,0 23.022,3.26 23.022,15.158 v 1.205 c 0,4.462 -2.269,8.286 -5.455,10.058 3.186,1.842 5.737,5.737 5.737,10.27 v 0.921 c 0,13.669 -11.759,16.362 -23.092,16.362"
   style="fill:#ee3123;fill-rule:nonzero"
   id="path21" />
    </g></g>
    
    
    
    
    
    
    <g
   id="g30"
   transform="translate(-284021.8,-59138.382)"><g
     transform="matrix(4.16667,0,0,4.16667,0,880.649)"
     id="g22">
        <path
   d="m 79.972,34.639 h -1.414 c -0.317,0 -0.577,-0.261 -0.577,-0.578 V 16.956 c 0,-0.059 0,-0.087 -0.029,-0.087 -0.028,0 -0.028,0 -0.056,0.059 l -4.126,8.537 c -0.288,0.577 -0.577,0.838 -1.299,0.838 h -1.325 c -0.722,0 -1.011,-0.261 -1.3,-0.838 l -4.123,-8.537 c -0.03,-0.059 -0.03,-0.059 -0.059,-0.059 -0.029,0 -0.029,0.028 -0.029,0.087 v 17.105 c 0,0.317 -0.26,0.578 -0.577,0.578 h -1.413 c -0.317,0 -0.577,-0.261 -0.577,-0.578 V 14.043 c 0,-0.462 0.376,-0.837 0.837,-0.837 h 1.875 c 0.519,0 0.751,0.116 0.923,0.491 l 4.76,9.893 c 0.116,0.261 0.201,0.318 0.345,0.318 0.144,0 0.232,-0.057 0.346,-0.318 l 4.759,-9.893 c 0.173,-0.375 0.405,-0.491 0.924,-0.491 h 1.876 c 0.462,0 0.836,0.375 0.836,0.837 v 20.018 c 0,0.317 -0.26,0.578 -0.577,0.578"
   style="fill:#ee3123;fill-rule:nonzero"
   id="path22" />
    </g><g
     transform="matrix(4.16667,0,0,4.16667,0,903.842)"
     id="g23">
        <path
   d="m 99.017,21.399 h -2.135 c -3.489,0 -4.413,0.779 -4.413,2.826 v 0.346 c 0,2.078 0.981,2.628 2.654,2.628 1.328,0 2.509,-0.406 3.894,-1.156 z m 1.961,7.673 h -1.327 c -0.317,0 -0.576,-0.26 -0.576,-0.577 v -0.634 c -1.384,0.806 -2.828,1.412 -4.442,1.412 -2.452,0 -4.703,-1.067 -4.703,-4.672 v -0.347 c 0,-3.115 1.818,-4.672 6.952,-4.672 h 2.135 v -1.153 c 0,-2.424 -0.836,-3.261 -3.087,-3.261 -1.874,0 -3.259,0.115 -4.412,0.232 h -0.144 c -0.26,0 -0.521,-0.088 -0.521,-0.462 v -1.011 c 0,-0.317 0.204,-0.49 0.606,-0.546 1.184,-0.204 2.509,-0.376 4.471,-0.376 4.01,0 5.626,2.018 5.626,5.424 v 10.066 c 0,0.317 -0.26,0.577 -0.578,0.577"
   style="fill:#ee3123;fill-rule:nonzero"
   id="path23" />
    </g><g
     transform="matrix(4.16667,0,0,4.16667,0,880.411)"
     id="g24">
        <path
   d="m 120.397,21.051 c -0.951,-0.172 -2.452,-0.201 -3.375,-0.201 -2.826,0 -3.748,1.759 -3.748,4.846 v 2.077 c 0,3.143 0.892,4.903 3.748,4.903 0.98,0 2.395,-0.086 3.375,-0.174 z m 1.932,13.357 c -1.787,0.345 -3.548,0.489 -5.307,0.489 -4.298,0 -6.288,-2.798 -6.288,-7.124 v -2.077 c 0,-4.529 2.078,-7.068 6.288,-7.068 0.895,0 2.251,0.087 3.375,0.288 v -5.365 c 0,-0.288 0.23,-0.546 0.548,-0.546 h 1.472 c 0.288,0 0.518,0.229 0.518,0.546 v 20.194 c 0,0.373 -0.086,0.574 -0.606,0.663"
   style="fill:#ee3123;fill-rule:nonzero"
   id="path24" />
    </g><g
     transform="matrix(4.16667,0,0,4.16667,0,903.842)"
     id="g25">
        <path
   d="m 142.297,19.754 c 0,-3.259 -1.24,-4.528 -3.778,-4.528 -2.48,0 -3.865,1.414 -3.865,4.528 v 0.261 h 7.643 z m 2.02,2.192 h -9.663 v 0.404 c 0,3.433 1.355,4.703 4.01,4.703 1.674,0 3.805,-0.114 5.134,-0.317 h 0.144 c 0.23,0 0.462,0.114 0.462,0.403 v 0.982 c 0,0.374 -0.116,0.575 -0.578,0.663 -1.643,0.317 -3.231,0.489 -5.162,0.489 -3.318,0 -6.549,-1.557 -6.549,-6.923 v -2.596 c 0,-4.125 2.279,-6.749 6.404,-6.749 4.211,0 6.346,2.655 6.346,6.749 v 1.558 c 0,0.375 -0.201,0.634 -0.548,0.634"
   style="fill:#ee3123;fill-rule:nonzero"
   id="path25" />
    </g><g
     transform="matrix(4.16667,0,0,4.16667,0,878.85)"
     id="g26">
        <path
   d="m 156.379,35.07 h -1.384 c -0.318,0 -0.575,-0.26 -0.575,-0.577 V 19.78 c 0,-0.315 0.257,-0.574 0.575,-0.574 h 1.384 c 0.318,0 0.578,0.259 0.578,0.574 v 14.713 c 0,0.317 -0.26,0.577 -0.578,0.577 m 0.059,-18.404 h -1.472 c -0.317,0 -0.578,-0.26 -0.578,-0.578 v -2.307 c 0,-0.317 0.261,-0.575 0.578,-0.575 h 1.472 c 0.318,0 0.576,0.258 0.576,0.575 v 2.307 c 0,0.318 -0.258,0.578 -0.576,0.578"
   style="fill:#ee3123;fill-rule:nonzero"
   id="path26" />
    </g><g
     transform="matrix(4.16667,0,0,4.16667,0,903.005)"
     id="g27">
        <path
   d="m 173.517,15.399 c -1.325,0 -2.538,0.345 -3.981,1.21 v 12.087 c 0,0.289 -0.258,0.577 -0.576,0.577 h -1.413 c -0.288,0 -0.549,-0.26 -0.549,-0.577 V 13.983 c 0,-0.316 0.23,-0.574 0.549,-0.574 h 1.355 c 0.316,0 0.548,0.258 0.548,0.574 v 0.606 c 1.442,-1.007 2.77,-1.383 4.067,-1.383 0.404,0 0.606,0.172 0.606,0.519 v 1.182 c 0,0.317 -0.202,0.492 -0.606,0.492"
   style="fill:#ee3123;fill-rule:nonzero"
   id="path27" />
    </g><g
     transform="matrix(4.16667,0,0,4.16667,0,903.842)"
     id="g28">
        <path
   d="m 191.147,21.399 h -2.135 c -3.491,0 -4.414,0.779 -4.414,2.826 v 0.346 c 0,2.078 0.982,2.628 2.653,2.628 1.327,0 2.511,-0.406 3.896,-1.156 z m 1.961,7.673 h -1.327 c -0.317,0 -0.577,-0.26 -0.577,-0.577 v -0.634 c -1.385,0.806 -2.826,1.412 -4.443,1.412 -2.452,0 -4.7,-1.067 -4.7,-4.672 v -0.347 c 0,-3.115 1.817,-4.672 6.951,-4.672 h 2.135 v -1.153 c 0,-2.424 -0.838,-3.261 -3.087,-3.261 -1.874,0 -3.259,0.115 -4.414,0.232 h -0.143 c -0.261,0 -0.519,-0.088 -0.519,-0.462 v -1.011 c 0,-0.317 0.201,-0.49 0.605,-0.546 1.182,-0.204 2.509,-0.376 4.471,-0.376 4.01,0 5.624,2.018 5.624,5.424 v 10.066 c 0,0.317 -0.258,0.577 -0.576,0.577"
   style="fill:#ee3123;fill-rule:nonzero"
   id="path28" />
    </g></g>
</svg>
